<svg height="128" viewBox="0 0 33.866666 33.866666" width="128" xmlns="http://www.w3.org/2000/svg"><g><path d="m2.0862069.01096959h21.7311111v1.99151171h1.975556v1.9915108h1.975556v1.9915122h1.975555v1.9915118h1.975554v7.9660449h-1.975554v1.991512h-1.975555v1.99151h-1.975556v1.991512h-1.975556v1.991511h-1.975555v1.991513h-1.975556v1.991511h-1.975555v1.991512h-1.975556v1.991512h-1.975555v1.991512l-11.8050732.06642z" fill="#9d9e9e"/><path d="m4.0617625 2.0024813h19.7555555v1.9915108h3.951112-1.975556v1.9915122h1.975556v1.9915118h1.975555v7.9660449h-25.6822225z" fill="#fff"/><path d="m4.0617625 2.0024813h19.7555555v5.9745348h5.926667v9.9575539h-1.975555v1.99151h-1.975556v1.991512h-1.975556v1.991511h-1.975555v1.991516h-1.975556v1.991511h-1.975555v1.991512h-1.975556v1.991512h-11.8533335z" fill="#9d9e9e"/><path d="m4.0617625 2.0024813h17.7800005v7.9660455l7.902222-.0321928v7.998236h-1.975555v1.99151h-1.975556v1.991512h-1.975556v1.991511h-1.975555v1.991516h-1.975556v1.991511h-1.975555v1.991512h-1.975556v1.991512h-11.8533335z" fill="#cfdaee"/><path d="m8.0128727 11.960038h9.8777793v-3.9830219h-1.975556l-.000002-1.9915118h-3.951112v1.9915108h-1.9755531v1.9915097h-1.9755562z" fill="#fff"/><path d="m4.0617615 31.875154h11.8533325v-1.991512h1.975558v-1.991512h1.975553v-1.991511h1.975557v-1.991516l-1.975557.000003v-1.991514h-1.975553v-1.991509h-3.951111v1.991512h-1.975557v1.991511h-1.9755551v1.991513h-1.9755552v1.991511h-1.9755556v1.991512h-1.9755566z" fill="#52b348"/><path d="m21.841762 33.866666h9.877777v-9.95756h-1.975554v1.991513h-1.922464l-.05309 1.991511h-1.975555v1.991512h-1.975557l.04674 1.991512h-2.022295z" fill="#9d9e9e"/><path d="m23.817316 31.875154h5.926668v-5.974535h-1.975556v1.991511h-1.975555v1.991512h-1.975557z" fill="#52b348"/><path d="m27.76843 29.883642h1.975555l-.000001-3.982974h-1.975556z" fill="#cfdaee"/></g></svg>